<mxfile host="app.diagrams.net" modified="2023-07-02T16:19:58.148Z" agent="Mozilla/5.0 (Windows NT 10.0; Win64; x64) AppleWebKit/537.36 (KHTML, like Gecko) Chrome/114.0.0.0 Safari/537.36 Edg/114.0.1823.67" etag="DsCV5_280krc_g7B7-AX" version="21.5.2" type="github">
  <diagram name="第 1 页" id="OpDthlvLPTq0gWTyiU4q">
    <mxGraphModel dx="2019" dy="1156" grid="1" gridSize="10" guides="1" tooltips="1" connect="1" arrows="1" fold="1" page="1" pageScale="1" pageWidth="827" pageHeight="1169" math="0" shadow="0">
      <root>
        <mxCell id="0" />
        <mxCell id="1" parent="0" />
        <mxCell id="YOrxzBl4g7cKqVYeZxFf-125" value="" style="rounded=0;whiteSpace=wrap;html=1;fillColor=#FFFFCC;" parent="1" vertex="1">
          <mxGeometry x="700" y="200" width="680" height="620" as="geometry" />
        </mxCell>
        <mxCell id="YOrxzBl4g7cKqVYeZxFf-14" value="" style="endArrow=classic;html=1;rounded=0;strokeWidth=3;" parent="1" edge="1">
          <mxGeometry width="50" height="50" relative="1" as="geometry">
            <mxPoint x="400" y="120" as="sourcePoint" />
            <mxPoint x="520" y="120" as="targetPoint" />
          </mxGeometry>
        </mxCell>
        <mxCell id="YOrxzBl4g7cKqVYeZxFf-15" value="" style="endArrow=classic;html=1;rounded=0;strokeWidth=3;strokeColor=#0066CC;" parent="1" edge="1">
          <mxGeometry width="50" height="50" relative="1" as="geometry">
            <mxPoint x="400" y="240" as="sourcePoint" />
            <mxPoint x="520" y="240" as="targetPoint" />
          </mxGeometry>
        </mxCell>
        <mxCell id="YOrxzBl4g7cKqVYeZxFf-20" value="" style="endArrow=none;dashed=1;html=1;rounded=0;" parent="1" edge="1">
          <mxGeometry width="50" height="50" relative="1" as="geometry">
            <mxPoint x="240" y="840" as="sourcePoint" />
            <mxPoint x="1500" y="840" as="targetPoint" />
          </mxGeometry>
        </mxCell>
        <mxCell id="YOrxzBl4g7cKqVYeZxFf-21" value="&lt;font style=&quot;font-size: 18px;&quot;&gt;User&lt;/font&gt;" style="text;html=1;strokeColor=none;fillColor=none;align=center;verticalAlign=middle;whiteSpace=wrap;rounded=0;" parent="1" vertex="1">
          <mxGeometry x="240" y="800" width="100" height="40" as="geometry" />
        </mxCell>
        <mxCell id="YOrxzBl4g7cKqVYeZxFf-22" value="&lt;font style=&quot;font-size: 18px;&quot;&gt;Kernel&lt;/font&gt;" style="text;html=1;strokeColor=none;fillColor=none;align=center;verticalAlign=middle;whiteSpace=wrap;rounded=0;" parent="1" vertex="1">
          <mxGeometry x="240" y="840" width="100" height="40" as="geometry" />
        </mxCell>
        <mxCell id="YOrxzBl4g7cKqVYeZxFf-31" value="&lt;span style=&quot;font-size: 18px;&quot;&gt;control flow&lt;/span&gt;" style="text;html=1;strokeColor=none;fillColor=none;align=center;verticalAlign=middle;whiteSpace=wrap;rounded=0;" parent="1" vertex="1">
          <mxGeometry x="400" y="80" width="120" height="40" as="geometry" />
        </mxCell>
        <mxCell id="YOrxzBl4g7cKqVYeZxFf-46" value="&lt;font style=&quot;font-size: 20px;&quot;&gt;Disk Interface&lt;/font&gt;" style="rounded=0;whiteSpace=wrap;html=1;align=center;fontSize=20;" parent="1" vertex="1">
          <mxGeometry x="420" y="740" width="240" height="80" as="geometry" />
        </mxCell>
        <mxCell id="YOrxzBl4g7cKqVYeZxFf-61" value="" style="endArrow=classic;html=1;rounded=0;strokeWidth=3;dashed=1;dashPattern=1 1;" parent="1" edge="1">
          <mxGeometry width="50" height="50" relative="1" as="geometry">
            <mxPoint x="400" y="180" as="sourcePoint" />
            <mxPoint x="520" y="180" as="targetPoint" />
          </mxGeometry>
        </mxCell>
        <mxCell id="YOrxzBl4g7cKqVYeZxFf-62" value="&lt;span style=&quot;font-size: 18px;&quot;&gt;data updates&lt;/span&gt;" style="text;html=1;strokeColor=none;fillColor=none;align=center;verticalAlign=middle;whiteSpace=wrap;rounded=0;" parent="1" vertex="1">
          <mxGeometry x="400" y="140" width="120" height="40" as="geometry" />
        </mxCell>
        <mxCell id="YOrxzBl4g7cKqVYeZxFf-71" value="&lt;span style=&quot;font-size: 18px;&quot;&gt;asynchronous IO&lt;/span&gt;" style="text;html=1;strokeColor=none;fillColor=none;align=center;verticalAlign=middle;whiteSpace=wrap;rounded=0;" parent="1" vertex="1">
          <mxGeometry x="400" y="200" width="140" height="40" as="geometry" />
        </mxCell>
        <mxCell id="YOrxzBl4g7cKqVYeZxFf-96" value="&lt;font style=&quot;font-size: 20px;&quot;&gt;File System&lt;/font&gt;" style="rounded=0;whiteSpace=wrap;html=1;" parent="1" vertex="1">
          <mxGeometry x="420" y="860" width="240" height="80" as="geometry" />
        </mxCell>
        <mxCell id="YOrxzBl4g7cKqVYeZxFf-97" value="" style="endArrow=classic;html=1;rounded=0;strokeWidth=3;strokeColor=#0066CC;" parent="1" edge="1">
          <mxGeometry width="50" height="50" relative="1" as="geometry">
            <mxPoint x="500" y="820" as="sourcePoint" />
            <mxPoint x="500" y="860" as="targetPoint" />
          </mxGeometry>
        </mxCell>
        <mxCell id="YOrxzBl4g7cKqVYeZxFf-98" value="" style="endArrow=classic;html=1;rounded=0;strokeWidth=3;strokeColor=#0066CC;" parent="1" edge="1">
          <mxGeometry width="50" height="50" relative="1" as="geometry">
            <mxPoint x="580" y="860" as="sourcePoint" />
            <mxPoint x="580" y="820" as="targetPoint" />
          </mxGeometry>
        </mxCell>
        <mxCell id="YOrxzBl4g7cKqVYeZxFf-100" value="&lt;font style=&quot;font-size: 20px;&quot;&gt;Guest VM&lt;/font&gt;" style="rounded=0;whiteSpace=wrap;html=1;align=center;" parent="1" vertex="1">
          <mxGeometry x="700" y="80" width="680" height="80" as="geometry" />
        </mxCell>
        <mxCell id="YOrxzBl4g7cKqVYeZxFf-101" value="&lt;font style=&quot;font-size: 20px;&quot;&gt;RAM Load Handler&lt;/font&gt;" style="rounded=0;whiteSpace=wrap;html=1;fillColor=#FFFFFF;fontSize=20;" parent="1" vertex="1">
          <mxGeometry x="760" y="290" width="280" height="120" as="geometry" />
        </mxCell>
        <mxCell id="YOrxzBl4g7cKqVYeZxFf-102" value="&lt;font style=&quot;font-size: 20px;&quot;&gt;Migration Incoming&lt;br style=&quot;font-size: 20px;&quot;&gt;Module&lt;/font&gt;" style="rounded=0;whiteSpace=wrap;html=1;fontSize=20;fillColor=#CCCCCC;" parent="1" vertex="1">
          <mxGeometry x="1200" y="360" width="120" height="80" as="geometry" />
        </mxCell>
        <mxCell id="YOrxzBl4g7cKqVYeZxFf-105" value="&lt;font style=&quot;font-size: 20px;&quot;&gt;Incremental Checkpoint&lt;br style=&quot;font-size: 20px;&quot;&gt;Module&lt;/font&gt;" style="rounded=0;whiteSpace=wrap;html=1;fillColor=#CCCCCC;fontSize=20;" parent="1" vertex="1">
          <mxGeometry x="1200" y="500" width="120" height="80" as="geometry" />
        </mxCell>
        <mxCell id="YOrxzBl4g7cKqVYeZxFf-111" value="" style="endArrow=classic;html=1;rounded=0;strokeWidth=3;strokeColor=#0066CC;" parent="1" edge="1">
          <mxGeometry width="50" height="50" relative="1" as="geometry">
            <mxPoint x="520" y="320" as="sourcePoint" />
            <mxPoint x="760" y="320" as="targetPoint" />
          </mxGeometry>
        </mxCell>
        <mxCell id="YOrxzBl4g7cKqVYeZxFf-112" value="" style="endArrow=classic;html=1;rounded=0;strokeWidth=3;" parent="1" edge="1">
          <mxGeometry width="50" height="50" relative="1" as="geometry">
            <mxPoint x="520" y="260" as="sourcePoint" />
            <mxPoint x="1260" y="360" as="targetPoint" />
            <Array as="points">
              <mxPoint x="1260" y="260" />
            </Array>
          </mxGeometry>
        </mxCell>
        <mxCell id="YOrxzBl4g7cKqVYeZxFf-113" value="&lt;font style=&quot;font-size: 18px;&quot;&gt;4.1) post-copy listen&lt;/font&gt;" style="text;html=1;strokeColor=none;fillColor=none;align=center;verticalAlign=middle;whiteSpace=wrap;rounded=0;" parent="1" vertex="1">
          <mxGeometry x="1020" y="220" width="240" height="40" as="geometry" />
        </mxCell>
        <mxCell id="YOrxzBl4g7cKqVYeZxFf-114" value="&lt;font style=&quot;font-size: 18px;&quot;&gt;5.1) memory post-copy&lt;/font&gt;" style="text;html=1;strokeColor=none;fillColor=none;align=center;verticalAlign=middle;whiteSpace=wrap;rounded=0;" parent="1" vertex="1">
          <mxGeometry x="540" y="280" width="200" height="40" as="geometry" />
        </mxCell>
        <mxCell id="YOrxzBl4g7cKqVYeZxFf-115" value="" style="endArrow=classic;html=1;rounded=0;strokeWidth=3;" parent="1" edge="1">
          <mxGeometry width="50" height="50" relative="1" as="geometry">
            <mxPoint x="1259.5" y="440" as="sourcePoint" />
            <mxPoint x="1259.5" y="500" as="targetPoint" />
          </mxGeometry>
        </mxCell>
        <mxCell id="YOrxzBl4g7cKqVYeZxFf-116" value="&lt;font style=&quot;font-size: 18px;&quot;&gt;4.2) activate&lt;/font&gt;" style="text;html=1;strokeColor=none;fillColor=none;align=center;verticalAlign=middle;whiteSpace=wrap;rounded=0;" parent="1" vertex="1">
          <mxGeometry x="1260" y="450" width="120" height="40" as="geometry" />
        </mxCell>
        <mxCell id="YOrxzBl4g7cKqVYeZxFf-117" value="&lt;font style=&quot;font-size: 20px;&quot;&gt;Incremental Checkpoint&amp;nbsp; Handler&lt;/font&gt;" style="rounded=0;whiteSpace=wrap;html=1;fillColor=#CCCCCC;fontSize=20;" parent="1" vertex="1">
          <mxGeometry x="760" y="660" width="240" height="80" as="geometry" />
        </mxCell>
        <mxCell id="YOrxzBl4g7cKqVYeZxFf-118" value="&lt;font style=&quot;font-size: 20px;&quot;&gt;Incremental Checkpoint&lt;br&gt;Thread&lt;br&gt;&lt;/font&gt;" style="rounded=0;whiteSpace=wrap;html=1;fillColor=#CCCCCC;fontSize=20;" parent="1" vertex="1">
          <mxGeometry x="760" y="500" width="240" height="80" as="geometry" />
        </mxCell>
        <mxCell id="YOrxzBl4g7cKqVYeZxFf-119" value="" style="endArrow=classic;html=1;rounded=0;strokeWidth=3;" parent="1" edge="1">
          <mxGeometry width="50" height="50" relative="1" as="geometry">
            <mxPoint x="1200" y="540" as="sourcePoint" />
            <mxPoint x="1000" y="540" as="targetPoint" />
          </mxGeometry>
        </mxCell>
        <mxCell id="YOrxzBl4g7cKqVYeZxFf-120" value="&lt;font style=&quot;font-size: 18px;&quot;&gt;4.3) create incremental checkpoint thread&lt;/font&gt;" style="text;html=1;strokeColor=none;fillColor=none;align=center;verticalAlign=middle;whiteSpace=wrap;rounded=0;" parent="1" vertex="1">
          <mxGeometry x="990" y="479.5" width="220" height="60.5" as="geometry" />
        </mxCell>
        <mxCell id="YOrxzBl4g7cKqVYeZxFf-121" value="" style="endArrow=classic;html=1;rounded=0;strokeWidth=3;" parent="1" edge="1">
          <mxGeometry width="50" height="50" relative="1" as="geometry">
            <mxPoint x="880" y="580" as="sourcePoint" />
            <mxPoint x="880" y="660" as="targetPoint" />
          </mxGeometry>
        </mxCell>
        <mxCell id="YOrxzBl4g7cKqVYeZxFf-122" value="&lt;font style=&quot;font-size: 18px;&quot;&gt;5.2) 2-stage checkpointing&lt;/font&gt;" style="text;html=1;strokeColor=none;fillColor=none;align=center;verticalAlign=middle;whiteSpace=wrap;rounded=0;" parent="1" vertex="1">
          <mxGeometry x="880" y="600" width="240" height="40" as="geometry" />
        </mxCell>
        <mxCell id="YOrxzBl4g7cKqVYeZxFf-123" value="" style="endArrow=classic;html=1;rounded=0;strokeWidth=3;strokeColor=#0066CC;entryX=0.5;entryY=0;entryDx=0;entryDy=0;" parent="1" edge="1" target="YOrxzBl4g7cKqVYeZxFf-46">
          <mxGeometry width="50" height="50" relative="1" as="geometry">
            <mxPoint x="760" y="700" as="sourcePoint" />
            <mxPoint x="580" y="820" as="targetPoint" />
            <Array as="points">
              <mxPoint x="540" y="700" />
            </Array>
          </mxGeometry>
        </mxCell>
        <mxCell id="YOrxzBl4g7cKqVYeZxFf-124" value="&lt;font style=&quot;font-size: 18px;&quot;&gt;5.3) checkpoint store&lt;/font&gt;" style="text;html=1;strokeColor=none;fillColor=none;align=center;verticalAlign=middle;whiteSpace=wrap;rounded=0;" parent="1" vertex="1">
          <mxGeometry x="560" y="660" width="200" height="40" as="geometry" />
        </mxCell>
        <mxCell id="YOrxzBl4g7cKqVYeZxFf-126" value="&lt;font style=&quot;font-size: 18px;&quot;&gt;Qemu&lt;/font&gt;" style="text;html=1;strokeColor=none;fillColor=none;align=center;verticalAlign=middle;whiteSpace=wrap;rounded=0;" parent="1" vertex="1">
          <mxGeometry x="700" y="200" width="100" height="60" as="geometry" />
        </mxCell>
        <mxCell id="YOrxzBl4g7cKqVYeZxFf-127" value="" style="endArrow=classic;html=1;rounded=0;strokeWidth=3;" parent="1" edge="1">
          <mxGeometry width="50" height="50" relative="1" as="geometry">
            <mxPoint x="1200" y="380" as="sourcePoint" />
            <mxPoint x="1040" y="380" as="targetPoint" />
          </mxGeometry>
        </mxCell>
        <mxCell id="YOrxzBl4g7cKqVYeZxFf-128" value="&lt;font style=&quot;font-size: 18px;&quot;&gt;4.4) start post-copy&lt;/font&gt;" style="text;html=1;strokeColor=none;fillColor=none;align=center;verticalAlign=middle;whiteSpace=wrap;rounded=0;" parent="1" vertex="1">
          <mxGeometry x="1000" y="340" width="240" height="40" as="geometry" />
        </mxCell>
        <mxCell id="YOrxzBl4g7cKqVYeZxFf-129" value="&lt;font style=&quot;font-size: 20px;&quot;&gt;KVM&lt;/font&gt;" style="rounded=0;whiteSpace=wrap;html=1;" parent="1" vertex="1">
          <mxGeometry x="700" y="860" width="680" height="80" as="geometry" />
        </mxCell>
        <mxCell id="YOrxzBl4g7cKqVYeZxFf-131" value="" style="rounded=0;whiteSpace=wrap;html=1;" parent="1" vertex="1">
          <mxGeometry x="260" y="80" width="80" height="40" as="geometry" />
        </mxCell>
        <mxCell id="YOrxzBl4g7cKqVYeZxFf-132" value="&lt;span style=&quot;font-size: 18px;&quot;&gt;unmodified module&lt;/span&gt;" style="text;html=1;strokeColor=none;fillColor=none;align=center;verticalAlign=middle;whiteSpace=wrap;rounded=0;" parent="1" vertex="1">
          <mxGeometry x="240" y="140" width="120" height="40" as="geometry" />
        </mxCell>
        <mxCell id="YOrxzBl4g7cKqVYeZxFf-133" value="" style="rounded=0;whiteSpace=wrap;html=1;fillColor=#CCCCCC;" parent="1" vertex="1">
          <mxGeometry x="260" y="200" width="80" height="40" as="geometry" />
        </mxCell>
        <mxCell id="YOrxzBl4g7cKqVYeZxFf-134" value="&lt;span style=&quot;font-size: 18px;&quot;&gt;modified module&lt;/span&gt;" style="text;html=1;strokeColor=none;fillColor=none;align=center;verticalAlign=middle;whiteSpace=wrap;rounded=0;" parent="1" vertex="1">
          <mxGeometry x="240" y="260" width="120" height="40" as="geometry" />
        </mxCell>
        <mxCell id="kRI8kTZbzlB6oU1YrDkl-1" value="&lt;font style=&quot;font-size: 30px;&quot;&gt;Migration Phases&lt;br&gt;4.x) : hybrid post-copy setup&lt;br&gt;5.x) : hybrid post-copy&amp;nbsp;&lt;/font&gt;" style="text;html=1;strokeColor=none;fillColor=none;align=left;verticalAlign=middle;whiteSpace=wrap;rounded=0;" parent="1" vertex="1">
          <mxGeometry x="260" y="480" width="400" height="120" as="geometry" />
        </mxCell>
      </root>
    </mxGraphModel>
  </diagram>
</mxfile>
